<svg width="11" height="10" viewBox="0 0 11 10" fill="none" xmlns="http://www.w3.org/2000/svg">
<path d="M10.044 0.261688C9.70207 -0.0872452 9.14776 -0.0872 8.80582 0.261715L5.40073 3.73648L1.99568 0.261715C1.65369 -0.0872313 1.09938 -0.0872362 0.757435 0.261688C0.41549 0.61062 0.415534 1.17631 0.757392 1.52524L4.16248 4.99997L0.757435 8.47474C0.41549 8.82368 0.41549 9.38937 0.757435 9.73831C1.09938 10.0872 1.65369 10.0872 1.99564 9.73831L5.40073 6.26355L8.80577 9.73831C9.14776 10.0873 9.70207 10.0872 10.044 9.73831C10.386 9.38937 10.3859 8.82366 10.0441 8.47476L6.63897 5L10.044 1.52524C10.386 1.17633 10.386 0.610607 10.044 0.261688Z" fill="currentColor"/>
</svg>
