<svg width="16" height="17" fill="none" xmlns="http://www.w3.org/2000/svg"><path d="M12.61 4.139c.223.224.43.461.625.711l-.117-.15c.378.495.693 1.034.936 1.606l-.075-.178c.249.593.417 1.216.502 1.851a6.939 6.939 0 0 1-.026-.196c.084.64.084 1.289 0 1.93.01-.065.019-.132.026-.196a7.307 7.307 0 0 1-.502 1.85l.075-.178a7.296 7.296 0 0 1-.936 1.607l.117-.15c-.387.5-.837.95-1.337 1.337l.15-.117a7.404 7.404 0 0 1-1.605.936l.178-.074a7.298 7.298 0 0 1-1.85.502c.064-.01.131-.019.196-.026a7.471 7.471 0 0 1-1.93 0c.065.01.132.018.197.026a7.297 7.297 0 0 1-1.85-.502l.178.074a7.285 7.285 0 0 1-1.606-.936l.15.117c-.5-.387-.95-.837-1.337-1.338l.117.15a7.411 7.411 0 0 1-.935-1.605l.074.177a7.309 7.309 0 0 1-.502-1.85c.01.064.018.131.026.196a7.484 7.484 0 0 1 0-1.93c-.01.065-.019.131-.026.196a7.308 7.308 0 0 1 .502-1.85l-.074.177A7.294 7.294 0 0 1 2.886 4.7l-.117.15a7.491 7.491 0 0 1 1.187-1.22 7.407 7.407 0 0 1 1.606-.936l-.178.074a7.3 7.3 0 0 1 1.85-.502c-.065.01-.132.018-.197.026a7.475 7.475 0 0 1 1.93 0 7.124 7.124 0 0 0-.196-.026 7.3 7.3 0 0 1 1.85.502l-.178-.074a7.29 7.29 0 0 1 1.605.935l-.15-.116c.25.194.487.402.711.626.274.274.776.294 1.048 0 .27-.295.293-.756 0-1.049-1.151-1.146-2.66-1.952-4.268-2.219A8.02 8.02 0 0 0 7.036.81c-.43.055-.854.131-1.27.254a8.561 8.561 0 0 0-1.191.454c-1.487.689-2.756 1.887-3.554 3.315C.243 6.227-.12 7.87.036 9.461c.081.828.272 1.623.594 2.39.33.782.773 1.491 1.326 2.138a7.957 7.957 0 0 0 4.118 2.528c1.543.376 3.211.302 4.7-.263.4-.152.79-.326 1.163-.537.383-.217.739-.47 1.083-.743a7.98 7.98 0 0 0 2.978-6.391c-.037-1.602-.552-3.209-1.504-4.503a8.715 8.715 0 0 0-.837-.99c-.274-.274-.777-.294-1.048 0-.272.297-.292.756 0 1.049z" fill="#257BF4"/><path d="M10.716 6.261 9.274 7.704l-2.296 2.298-.522.522h1.048L5.587 8.6l-.268-.27c-.275-.275-.778-.295-1.049 0-.272.296-.292.754 0 1.048l1.917 1.923.268.27a.752.752 0 0 0 1.049 0l1.442-1.443 2.296-2.297.522-.522c.275-.274.295-.778 0-1.049-.296-.27-.755-.292-1.048 0z" fill="#257BF4"/></svg>