<svg width="20" height="21" viewBox="0 0 20 21" fill="none" xmlns="http://www.w3.org/2000/svg">
<path d="M9.79953 20.75C4.3874 20.75 0 16.2728 0 10.75C0 5.22715 4.3874 0.75 9.79953 0.75C15.2117 0.75 19.5991 5.22715 19.5991 10.75C19.5991 16.2728 15.2117 20.75 9.79953 20.75ZM9.79953 19.0833C14.3096 19.0833 17.9658 15.3524 17.9658 10.75C17.9658 6.14763 14.3096 2.41667 9.79953 2.41667C5.28942 2.41667 1.63326 6.14763 1.63326 10.75C1.63326 15.3524 5.28942 19.0833 9.79953 19.0833ZM13.478 9.91667C13.927 9.91667 14.291 10.2866 14.291 10.75C14.291 11.2102 13.9277 11.5833 13.478 11.5833H6.12109C5.67208 11.5833 5.30808 11.2134 5.30808 10.75C5.30808 10.2898 5.67134 9.91667 6.12109 9.91667H13.478Z" fill="#257BF4"/>
</svg>
