<svg width="60" height="20" viewBox="0 0 60 20" fill="none" xmlns="http://www.w3.org/2000/svg">
<g opacity="0.5" clip-path="url(#clip0)">
<path d="M19.0412 4.20382C22.2139 4.20382 24.7947 6.80382 24.7947 10C24.7947 13.1962 22.2139 15.7962 19.0412 15.7962C15.8685 15.7962 13.2876 13.1962 13.2876 10C13.2876 6.80382 15.8685 4.20382 19.0412 4.20382ZM19.0412 0C13.5595 0 9.11475 4.47771 9.11475 10C9.11475 15.5223 13.5595 20 19.0412 20C24.5229 20 28.9676 15.5223 28.9676 10C28.9676 4.47771 24.5229 0 19.0412 0Z" fill="#EAEEF2"/>
<path d="M47.9346 1.06263L33.1401 15.9667L36.0908 18.9392L50.8852 4.03515L47.9346 1.06263Z" fill="#EAEEF2"/>
<path d="M13.1776 8.15017C12.9235 8.40749 12.6175 8.53488 12.2571 8.53488C11.8967 8.53488 11.5907 8.40622 11.3378 8.15017C11.0861 7.89412 10.9609 7.58456 10.9609 7.2215C10.9609 6.86099 11.0874 6.55271 11.3416 6.29794C11.5945 6.04316 11.8992 5.91577 12.2571 5.91577C12.6175 5.91577 12.9235 6.04316 13.1776 6.29794C13.4318 6.55271 13.5583 6.86099 13.5583 7.2215C13.5583 7.58329 13.4318 7.89284 13.1776 8.15017ZM11.468 6.42533C11.2505 6.64571 11.1418 6.91068 11.1418 7.22278C11.1418 7.53615 11.2492 7.80367 11.4655 8.02533C11.683 8.24698 11.946 8.35654 12.2571 8.35654C12.5669 8.35654 12.8312 8.24571 13.0487 8.02533C13.2662 7.80367 13.3749 7.53615 13.3749 7.22278C13.3749 6.91068 13.2662 6.64571 13.0487 6.42533C12.8299 6.20367 12.5669 6.09412 12.2571 6.09412C11.9498 6.09284 11.6868 6.20367 11.468 6.42533ZM12.233 6.49794C12.4101 6.49794 12.5403 6.51577 12.6225 6.55017C12.7705 6.61259 12.8438 6.73361 12.8438 6.9145C12.8438 7.04316 12.797 7.13743 12.7047 7.19857C12.6554 7.23042 12.5871 7.25335 12.4986 7.26864C12.6099 7.28647 12.6921 7.33361 12.7439 7.40877C12.7958 7.4852 12.821 7.55908 12.821 7.6317V7.73743C12.821 7.77055 12.8223 7.80622 12.8248 7.84443C12.8274 7.88265 12.8312 7.90685 12.8375 7.91959L12.8463 7.93743H12.6111C12.6099 7.93233 12.6086 7.92851 12.6073 7.92342C12.6061 7.91832 12.6048 7.91322 12.6035 7.90685L12.5985 7.86099V7.74507C12.5985 7.57947 12.5542 7.46991 12.4644 7.41641C12.4113 7.38584 12.3178 7.37055 12.185 7.37055H11.9865V7.93615H11.7348V6.49794H12.233ZM12.5036 6.72469C12.4404 6.68902 12.3393 6.67119 12.1989 6.67119H11.9839V7.1922H12.2115C12.3178 7.1922 12.3974 7.18201 12.4518 7.16036C12.5504 7.12087 12.5998 7.04571 12.5998 6.93615C12.5998 6.83042 12.5681 6.76036 12.5036 6.72469Z" fill="#EAEEF2"/>
<path d="M0.0746064 10.8508H1.38844C1.53006 11.3081 1.92206 11.5527 2.45569 11.5527C3.41293 11.5527 3.84033 10.6202 3.83148 9.24316H3.80493C3.57605 9.86482 2.94506 10.2827 2.11174 10.2827C0.930683 10.2814 0 9.43807 0 8.18966C0 6.86099 1.03184 5.91577 2.4519 5.91577C3.85424 5.91577 5.10611 6.87119 5.10611 9.21259C5.10611 11.3362 4.10462 12.6151 2.4519 12.6151C1.20382 12.6139 0.242787 11.8903 0.0746064 10.8508ZM3.63801 8.15781C3.63801 7.49539 3.12209 6.98456 2.4696 6.98456C1.81205 6.98456 1.29613 7.48647 1.29613 8.13488C1.29613 8.80494 1.79055 9.2852 2.45569 9.2852C3.12588 9.28647 3.63801 8.81641 3.63801 8.15781Z" fill="#EAEEF2"/>
<path d="M8.84165 7.15403V7.12728H5.60449V6.06104H10.1555V7.14002L7.50127 12.4725H6.10398L8.84165 7.15403Z" fill="#EAEEF2"/>
<path d="M14.4346 10.0826C14.4346 8.57181 15.1844 7.6355 16.3705 7.6355C17.0534 7.6355 17.5832 7.99984 17.8121 8.5285H17.8386V6.06226H19.1259V12.4724H17.8563V11.6546H17.8348C17.606 12.1795 17.0584 12.5476 16.3617 12.5476C15.1794 12.5476 14.4346 11.6062 14.4346 10.0826ZM15.7535 10.0903C15.7535 10.9654 16.1505 11.503 16.7979 11.503C17.4378 11.503 17.8475 10.9616 17.8475 10.0903C17.8475 9.22404 17.4378 8.67372 16.7979 8.67372C16.1505 8.67372 15.7535 9.22022 15.7535 10.0903Z" fill="#EAEEF2"/>
<path d="M19.978 6.40001C19.978 6.03185 20.2739 5.73376 20.6482 5.73376C21.0225 5.73376 21.3184 6.03185 21.3184 6.40001C21.3184 6.76434 21.0225 7.06625 20.6482 7.06625C20.2739 7.06625 19.978 6.76434 19.978 6.40001ZM20.0084 7.70956H21.2957V12.4713H20.0084V7.70956Z" fill="#EAEEF2"/>
<path d="M22.1254 12.8101H23.3861C23.4873 13.1387 23.8578 13.3604 24.3472 13.3604C25.0135 13.3604 25.3841 12.9922 25.3841 12.4406V11.605H25.3575C25.1375 12.112 24.5811 12.4585 23.8982 12.4585C22.7425 12.4585 21.98 11.5617 21.98 10.0725C21.98 8.56167 22.721 7.63428 23.9197 7.63428C24.5988 7.63428 25.1324 7.99351 25.379 8.54001H25.4005V7.70944H26.6701V12.405C26.6701 13.5375 25.7267 14.2661 24.3105 14.2661C23.07 14.2674 22.2278 13.6585 22.1254 12.8101ZM25.3891 10.0827C25.3891 9.22536 24.9794 8.67504 24.3358 8.67504C23.701 8.67504 23.2989 9.21644 23.2989 10.0827C23.2989 10.9527 23.6959 11.4598 24.3358 11.4598C24.9794 11.4585 25.3891 10.9438 25.3891 10.0827Z" fill="#EAEEF2"/>
<path d="M27.5015 6.40001C27.5015 6.03185 27.7974 5.73376 28.1717 5.73376C28.546 5.73376 28.8419 6.03185 28.8419 6.40001C28.8419 6.76434 28.546 7.06625 28.1717 7.06625C27.7974 7.06625 27.5015 6.76434 27.5015 6.40001ZM27.5318 7.70956H28.8191V12.4713H27.5318V7.70956Z" fill="#EAEEF2"/>
<path d="M31.307 6.61267V7.70949H32.1795V8.68656H31.307V10.9655C31.307 11.3299 31.484 11.5031 31.8621 11.5031C31.9772 11.5031 32.096 11.4942 32.1757 11.4815V12.4369C32.0429 12.4674 31.8229 12.4904 31.5624 12.4904C30.4509 12.4904 30.0185 12.1171 30.0185 11.1885V8.68783H29.3521V7.71076H30.0185V6.61394H31.307V6.61267Z" fill="#EAEEF2"/>
<path d="M32.6611 11.1044C32.6611 10.2381 33.3225 9.73621 34.4997 9.66487L35.6909 9.59353V9.27761C35.6909 8.83302 35.3824 8.5757 34.8968 8.5757C34.4163 8.5757 34.1115 8.81519 34.0496 9.16678H32.8723C32.9204 8.24321 33.7018 7.60754 34.9537 7.60754C36.1664 7.60754 36.9554 8.23812 36.9554 9.19863V12.4725H35.7124V11.7439H35.6859C35.4216 12.2509 34.8348 12.5477 34.2443 12.5477C33.3452 12.5477 32.6611 11.9617 32.6611 11.1044ZM35.6909 10.726V10.3795L34.6945 10.4419C34.214 10.4776 33.9408 10.6954 33.9408 11.033C33.9408 11.3884 34.2317 11.6101 34.6679 11.6101C35.2281 11.6101 35.6909 11.2419 35.6909 10.726Z" fill="#EAEEF2"/>
<path d="M37.8164 6.06226H39.1037V12.4724H37.8164V6.06226Z" fill="#EAEEF2"/>
<path d="M43.0871 11.6546H43.0606V12.4724H41.791V6.06226H43.0783V8.53614H43.1048C43.3653 7.97181 43.8901 7.63423 44.5641 7.63423C45.7553 7.63423 46.4862 8.55398 46.4862 10.0903C46.4862 11.6228 45.7591 12.5463 44.5679 12.5463C43.8762 12.5476 43.3476 12.21 43.0871 11.6546ZM43.0732 10.0903C43.0732 10.9514 43.4968 11.503 44.1228 11.503C44.7664 11.503 45.1673 10.9616 45.1673 10.0903C45.1673 9.22404 44.7614 8.67372 44.1228 8.67372C43.5019 8.67372 43.0732 9.23805 43.0732 10.0903Z" fill="#EAEEF2"/>
<path d="M51.5189 12.4724H50.2759V11.6151H50.2494C50.0154 12.2151 49.5488 12.5616 48.8344 12.5616C47.8114 12.5616 47.1323 11.8903 47.1323 10.7807V7.71066H48.4196V10.5094C48.4196 11.1451 48.7332 11.4826 49.301 11.4826C49.8738 11.4826 50.2317 11.0699 50.2317 10.438V7.70938H51.5189V12.4724ZM47.7658 6.39983C47.7658 6.04824 48.0478 5.76416 48.4006 5.76416C48.7585 5.76416 49.0443 6.04824 49.0443 6.39983C49.0443 6.74633 48.7572 7.0304 48.4006 7.0304C48.0491 7.0304 47.7658 6.74633 47.7658 6.39983ZM49.6146 6.39983C49.6146 6.04824 49.8966 5.76416 50.2544 5.76416C50.6123 5.76416 50.8892 6.04824 50.8892 6.39983C50.8892 6.74633 50.611 7.0304 50.2544 7.0304C49.8966 7.0304 49.6146 6.74633 49.6146 6.39983Z" fill="#EAEEF2"/>
<path d="M52.3572 7.70944H53.6002V8.56676H53.6268C53.7937 7.96294 54.1958 7.63428 54.7509 7.63428C54.9014 7.63428 55.0291 7.65593 55.1164 7.68269V8.82409C55.0102 8.7795 54.8344 8.74893 54.6485 8.74893C54.0137 8.74893 53.6432 9.14001 53.6432 9.81007V12.4712H52.356V7.70944H52.3572Z" fill="#EAEEF2"/>
<path d="M55.3164 10.0865C55.3164 8.54512 56.242 7.60754 57.6583 7.60754C59.0733 7.60754 60.0002 8.54003 60.0002 10.0865C60.0002 11.6547 59.0872 12.5744 57.6583 12.5744C56.2294 12.5744 55.3164 11.6496 55.3164 10.0865ZM58.6901 10.0903C58.6901 9.14385 58.2842 8.59735 57.6583 8.59735C57.0324 8.59735 56.6214 9.14385 56.6214 10.0903C56.6214 11.0458 57.0222 11.5833 57.6583 11.5833C58.2893 11.5833 58.6901 11.0458 58.6901 10.0903Z" fill="#EAEEF2"/>
</g>
<defs>
<clipPath id="clip0">
<rect width="60" height="20" fill="white"/>
</clipPath>
</defs>
</svg>
