<svg width="32" height="32" viewBox="0 0 32 32" fill="none" xmlns="http://www.w3.org/2000/svg">
<path opacity="0.25" d="M11 25C15.9706 25 20 20.9706 20 16C20 11.0294 15.9706 7 11 7C6.02944 7 2 11.0294 2 16C2 20.9706 6.02944 25 11 25Z" fill="#EAEEF2"/>
<path opacity="0.8" d="M21.2856 25.0001C26.2562 25.0001 30.2856 20.9707 30.2856 16.0001C30.2856 11.0296 26.2562 7.00012 21.2856 7.00012C16.3151 7.00012 12.2856 11.0296 12.2856 16.0001C12.2856 20.9707 16.3151 25.0001 21.2856 25.0001Z" fill="#EAEEF2"/>
<path opacity="0.35" fill-rule="evenodd" clip-rule="evenodd" d="M16.1428 8.61328C13.8112 10.2396 12.2856 12.9417 12.2856 16.0001C12.2856 19.0585 13.8112 21.7606 16.1428 23.3869C18.4744 21.7606 19.9999 19.0585 19.9999 16.0001C19.9999 12.9417 18.4744 10.2396 16.1428 8.61328Z" fill="#0D1115"/>
</svg>
