<svg width="16" height="12" viewBox="0 0 16 12" fill="none" xmlns="http://www.w3.org/2000/svg">
<path opacity="0.4" d="M8.01009 6.70689C8.30479 6.70689 8.56523 6.57029 8.87364 6.26295L14.85 0.355151C14.5827 0.116107 14.1098 0 13.445 0H2.39015C1.80074 0 1.38267 0.109277 1.1428 0.327832L7.14653 6.26295C7.44809 6.57029 7.71538 6.70689 8.01009 6.70689ZM0.484851 10.8389L5.41258 5.9761L0.491705 1.13375C0.368341 1.35231 0.299805 1.71429 0.299805 2.22652V9.77348C0.299805 10.2721 0.361487 10.6272 0.484851 10.8389ZM15.5216 10.8321C15.6381 10.6204 15.6998 10.2652 15.6998 9.77348V2.22652C15.6998 1.72795 15.6313 1.36596 15.5079 1.15424L10.6076 5.9761L15.5216 10.8321ZM2.55463 12H13.6095C14.2126 12 14.6375 11.8839 14.8842 11.6585L9.86741 6.69323L9.44248 7.10985C8.96959 7.56744 8.51725 7.786 8.01009 7.786C7.50292 7.786 7.04373 7.56744 6.57083 7.10985L6.14591 6.69323L1.13594 11.6448C1.41009 11.8771 1.88984 12 2.55463 12Z" fill="#EAEEF2"/>
</svg>
