<svg width="15" height="15" viewBox="0 0 15 15" fill="none" xmlns="http://www.w3.org/2000/svg">
<path d="M3.84859 10.6267C6.03193 12.8147 8.68894 14.5 10.8575 14.5C11.827 14.5 12.6782 14.16 13.3591 13.406C13.7587 12.9625 14.003 12.4525 14.003 11.9425C14.003 11.5507 13.8475 11.1663 13.4701 10.9002L11.1979 9.28881C10.8353 9.03749 10.5392 8.91922 10.2728 8.91922C9.92493 8.91922 9.61408 9.1114 9.27363 9.45143L8.74075 9.98363C8.65193 10.0649 8.54832 10.1019 8.4521 10.1019C8.33368 10.1019 8.22267 10.0576 8.14865 10.0132C7.68238 9.76188 6.88306 9.08184 6.14295 8.34266C5.40283 7.60349 4.71453 6.81257 4.47029 6.33949C4.42588 6.25818 4.38888 6.1547 4.38888 6.03643C4.38888 5.94773 4.41848 5.84424 4.49989 5.75554L5.03278 5.21595C5.36583 4.86853 5.56566 4.56547 5.56566 4.21806C5.56566 3.94456 5.44724 3.64889 5.1956 3.29409L3.58955 1.04699C3.31571 0.662619 2.93085 0.5 2.50899 0.5C2.00571 0.5 1.50243 0.721753 1.06576 1.14308C0.32565 1.83791 0 2.70275 0 3.65628C0 5.82207 1.66526 8.44615 3.84859 10.6267Z" fill="#EAEEF2"/>
</svg>
