<svg width="14" height="15" viewBox="0 0 14 15" xmlns="http://www.w3.org/2000/svg">
<path d="M5.77686 12.1943C6.94141 12.1943 8.03271 11.8428 8.94092 11.2422L12.1489 14.4575C12.3613 14.6626 12.6323 14.7651 12.9253 14.7651C13.5332 14.7651 13.98 14.2891 13.98 13.6885C13.98 13.4102 13.8848 13.1392 13.6797 12.9341L10.4937 9.7334C11.1528 8.7959 11.541 7.66064 11.541 6.43018C11.541 3.25879 8.94824 0.666016 5.77686 0.666016C2.61279 0.666016 0.0126953 3.25879 0.0126953 6.43018C0.0126953 9.60156 2.60547 12.1943 5.77686 12.1943ZM5.77686 10.6562C3.45508 10.6562 1.55078 8.75195 1.55078 6.43018C1.55078 4.1084 3.45508 2.2041 5.77686 2.2041C8.09863 2.2041 10.0029 4.1084 10.0029 6.43018C10.0029 8.75195 8.09863 10.6562 5.77686 10.6562Z" fill="#0D1115;"/>
</svg>
